<svg width="22" height="22" viewBox="0 0 22 22" fill="none" xmlns="http://www.w3.org/2000/svg">
<g clip-path="url(#clip0_222_79)">
<path d="M0.859225 11.8594L19.059 11.8594L16.0441 14.8596C15.7077 15.1944 15.7064 15.7386 16.0413 16.075C16.3761 16.4114 16.9202 16.4126 17.2566 16.0779L21.747 11.6091C21.7473 11.6089 21.7475 11.6086 21.7478 11.6083C22.0834 11.2735 22.0844 10.7276 21.7479 10.3917C21.7476 10.3914 21.7474 10.3911 21.7471 10.3909L17.2567 5.92214C16.9204 5.58742 16.3762 5.58858 16.0413 5.92506C15.7065 6.26147 15.7078 6.80558 16.0442 7.14039L19.059 10.1406L0.859225 10.1406C0.384593 10.1406 -0.000150173 10.5254 -0.000150215 11C-0.000150256 11.4746 0.384592 11.8594 0.859225 11.8594Z" fill="#2AB08F"/>
</g>
<defs>
<clipPath id="clip0_222_79">
<rect width="22" height="22" fill="white" transform="translate(22 22) rotate(-180)"/>
</clipPath>
</defs>
</svg>
