<svg width="173" height="173" viewBox="0 0 173 173" fill="none" xmlns="http://www.w3.org/2000/svg">
<g filter="url(#filter0_d_222_116)">
<circle cx="86.5" cy="82.4995" r="78.5" stroke="#1D1E1F" stroke-width="8"/>
<mask id="path-2-inside-1_222_116" fill="white">
<path d="M169 82.4995C169 98.8165 164.161 114.767 155.096 128.334C146.031 141.901 133.146 152.475 118.071 158.72C102.996 164.964 86.4085 166.598 70.4051 163.414C54.4016 160.231 39.7015 152.374 28.1637 140.836C16.6259 129.298 8.7685 114.598 5.58522 98.5945C2.40194 82.591 4.03572 66.003 10.2799 50.9281C16.5242 35.8532 27.0984 22.9685 40.6655 13.9033C54.2325 4.83805 70.183 -0.000488476 86.5 -0.000488281V7.99741C71.7649 7.99741 57.3607 12.3669 45.1089 20.5533C32.857 28.7397 23.3079 40.3753 17.669 53.9888C12.0301 67.6023 10.5548 82.5822 13.4294 97.0341C16.3041 111.486 23.3998 124.761 33.8191 135.18C44.2384 145.6 57.5134 152.695 71.9654 155.57C86.4174 158.445 101.397 156.969 115.011 151.33C128.624 145.692 140.26 136.142 148.446 123.891C156.633 111.639 161.002 97.2346 161.002 82.4995H169Z"/>
</mask>
<path d="M169 82.4995H177V74.4995H169V82.4995ZM86.5 -0.000488281H94.5V-8.00049H86.5V-0.000488281ZM86.5 7.99741V15.9974H94.5V7.99741H86.5ZM161.002 82.4995V74.4995H153.002V82.4995H161.002ZM161 82.4995C161 97.2342 156.631 111.638 148.444 123.889L161.748 132.779C171.692 117.896 177 100.399 177 82.4995H161ZM148.444 123.889C140.258 136.141 128.623 145.69 115.01 151.329L121.133 166.111C137.67 159.261 151.804 147.661 161.748 132.779L148.444 123.889ZM115.01 151.329C101.397 156.967 86.4174 158.443 71.9658 155.568L68.8443 171.261C86.3996 174.753 104.596 172.96 121.133 166.111L115.01 151.329ZM71.9658 155.568C57.5142 152.693 44.2396 145.598 33.8206 135.179L22.5068 146.493C35.1635 159.149 51.289 167.769 68.8443 171.261L71.9658 155.568ZM33.8206 135.179C23.4015 124.76 16.3061 111.485 13.4315 97.0337L-2.26106 100.155C1.2309 117.71 9.85019 133.836 22.5068 146.493L33.8206 135.179ZM13.4315 97.0337C10.5569 82.5822 12.0323 67.6027 17.671 53.9896L2.88891 47.8667C-3.96082 64.4034 -5.75302 82.5999 -2.26106 100.155L13.4315 97.0337ZM17.671 53.9896C23.3097 40.3765 32.8586 28.7412 45.11 20.555L36.2209 7.25151C21.3383 17.1958 9.73864 31.3299 2.88891 47.8667L17.671 53.9896ZM45.11 20.555C57.3615 12.3689 71.7653 7.99951 86.5 7.99951V-8.00049C68.6008 -8.00049 51.1035 -2.69276 36.2209 7.25151L45.11 20.555ZM78.5 -0.000488281V7.99741H94.5V-0.000488281H78.5ZM86.5 -0.00259399C70.1826 -0.00259419 54.2317 4.83607 40.6643 13.9015L49.5534 27.205C60.4896 19.8977 73.3471 15.9974 86.5 15.9974V-0.00259399ZM40.6643 13.9015C27.0969 22.967 16.5224 35.852 10.278 50.9273L25.0601 57.0503C30.0935 44.8986 38.6172 34.5124 49.5534 27.205L40.6643 13.9015ZM10.278 50.9273C4.03361 66.0026 2.39979 82.591 5.58316 98.5949L21.2757 95.4734C18.7097 82.5733 20.0267 69.2019 25.0601 57.0503L10.278 50.9273ZM5.58316 98.5949C8.76652 114.599 16.6241 129.299 28.1622 140.837L39.4759 129.524C30.1754 120.223 23.8417 108.374 21.2757 95.4734L5.58316 98.5949ZM28.1622 140.837C39.7003 152.375 54.4008 160.233 70.4046 163.416L73.5261 147.724C60.6259 145.158 48.7764 138.824 39.4759 129.524L28.1622 140.837ZM70.4046 163.416C86.4085 166.6 102.997 164.966 118.072 158.722L111.949 143.939C99.7976 148.973 86.4262 150.29 73.5261 147.724L70.4046 163.416ZM118.072 158.722C133.147 152.477 146.033 141.903 155.098 128.335L141.794 119.446C134.487 130.382 124.101 138.906 111.949 143.939L118.072 158.722ZM155.098 128.335C164.163 114.768 169.002 98.8169 169.002 82.4995H153.002C153.002 95.6524 149.102 108.51 141.794 119.446L155.098 128.335ZM161.002 90.4995H169V74.4995H161.002V90.4995Z" fill="#FF8257" mask="url(#path-2-inside-1_222_116)"/>
<path d="M66.9516 72.2055L57.4996 93.9995H53.5896L63.1436 72.6135H50.5636V69.3155H66.9516V72.2055ZM69.589 81.2835C69.589 77.3622 70.2463 74.3022 71.561 72.1035C72.8983 69.8822 75.1877 68.7715 78.429 68.7715C81.6703 68.7715 83.9483 69.8822 85.263 72.1035C86.6003 74.3022 87.269 77.3622 87.269 81.2835C87.269 85.2502 86.6003 88.3555 85.263 90.5995C83.9483 92.8208 81.6703 93.9315 78.429 93.9315C75.1877 93.9315 72.8983 92.8208 71.561 90.5995C70.2463 88.3555 69.589 85.2502 69.589 81.2835ZM83.461 81.2835C83.461 79.4475 83.3363 77.8948 83.087 76.6255C82.8603 75.3562 82.3843 74.3248 81.659 73.5315C80.9337 72.7155 79.857 72.3075 78.429 72.3075C77.001 72.3075 75.9243 72.7155 75.199 73.5315C74.4737 74.3248 73.9863 75.3562 73.737 76.6255C73.5103 77.8948 73.397 79.4475 73.397 81.2835C73.397 83.1875 73.5103 84.7855 73.737 86.0775C73.9637 87.3695 74.4397 88.4122 75.165 89.2055C75.913 89.9988 77.001 90.3955 78.429 90.3955C79.857 90.3955 80.9337 89.9988 81.659 89.2055C82.407 88.4122 82.8943 87.3695 83.121 86.0775C83.3477 84.7855 83.461 83.1875 83.461 81.2835ZM98.2303 75.1975C98.2303 73.5428 98.7063 72.2508 99.6583 71.3215C100.633 70.3695 101.88 69.8935 103.398 69.8935C104.917 69.8935 106.152 70.3695 107.104 71.3215C108.079 72.2508 108.566 73.5428 108.566 75.1975C108.566 76.8522 108.079 78.1555 107.104 79.1075C106.152 80.0595 104.917 80.5355 103.398 80.5355C101.88 80.5355 100.633 80.0595 99.6583 79.1075C98.7063 78.1555 98.2303 76.8522 98.2303 75.1975ZM118.97 70.3355L105.404 93.9995H101.596L115.162 70.3355H118.97ZM103.398 72.2395C101.97 72.2395 101.256 73.2255 101.256 75.1975C101.256 77.1922 101.97 78.1895 103.398 78.1895C104.078 78.1895 104.6 77.9515 104.962 77.4755C105.348 76.9768 105.54 76.2175 105.54 75.1975C105.54 73.2255 104.826 72.2395 103.398 72.2395ZM112.068 89.1035C112.068 87.4488 112.544 86.1568 113.496 85.2275C114.471 84.2755 115.718 83.7995 117.236 83.7995C118.732 83.7995 119.956 84.2755 120.908 85.2275C121.883 86.1568 122.37 87.4488 122.37 89.1035C122.37 90.7582 121.883 92.0615 120.908 93.0135C119.956 93.9655 118.732 94.4415 117.236 94.4415C115.718 94.4415 114.471 93.9655 113.496 93.0135C112.544 92.0615 112.068 90.7582 112.068 89.1035ZM117.202 86.1455C115.774 86.1455 115.06 87.1315 115.06 89.1035C115.06 91.0755 115.774 92.0615 117.202 92.0615C118.63 92.0615 119.344 91.0755 119.344 89.1035C119.344 87.1315 118.63 86.1455 117.202 86.1455Z" fill="#696C70"/>
</g>
<defs>
<filter id="filter0_d_222_116" x="-3.05176e-05" y="-0.000488281" width="173" height="173" filterUnits="userSpaceOnUse" color-interpolation-filters="sRGB">
<feFlood flood-opacity="0" result="BackgroundImageFix"/>
<feColorMatrix in="SourceAlpha" type="matrix" values="0 0 0 0 0 0 0 0 0 0 0 0 0 0 0 0 0 0 127 0" result="hardAlpha"/>
<feOffset dy="4"/>
<feGaussianBlur stdDeviation="2"/>
<feComposite in2="hardAlpha" operator="out"/>
<feColorMatrix type="matrix" values="0 0 0 0 0 0 0 0 0 0 0 0 0 0 0 0 0 0 0.25 0"/>
<feBlend mode="normal" in2="BackgroundImageFix" result="effect1_dropShadow_222_116"/>
<feBlend mode="normal" in="SourceGraphic" in2="effect1_dropShadow_222_116" result="shape"/>
</filter>
</defs>
</svg>
