<svg width="165" height="165" viewBox="0 0 165 165" fill="none" xmlns="http://www.w3.org/2000/svg">
<circle cx="82.5005" cy="82.4995" r="78.5" stroke="#1D1E1F" stroke-width="8"/>
<mask id="path-2-inside-1_222_100" fill="white">
<path d="M61.1479 162.188C41.5909 156.948 24.6437 144.699 13.5328 127.773C2.42182 110.847 -2.07701 90.4264 0.892746 70.3984L8.80414 71.5715C6.12229 89.6579 10.185 108.099 20.2188 123.384C30.2526 138.669 45.5568 149.73 63.2179 154.463L61.1479 162.188Z"/>
</mask>
<path d="M61.1479 162.188L59.0773 169.916L66.8047 171.986L68.8753 164.259L61.1479 162.188ZM0.892746 70.3984L2.06616 62.485L-5.84732 61.3115L-7.02073 69.225L0.892746 70.3984ZM8.80414 71.5715L16.7176 72.745L17.891 64.8315L9.97755 63.6581L8.80414 71.5715ZM63.2179 154.463L70.9453 156.533L73.0159 148.806L65.2885 146.735L63.2179 154.463ZM63.2184 154.461C45.5579 149.729 30.2541 138.667 20.2205 123.383L6.84499 132.163C19.0334 150.73 37.6239 164.167 59.0773 169.916L63.2184 154.461ZM20.2205 123.383C10.187 108.098 6.12444 89.6577 8.80622 71.5719L-7.02073 69.225C-10.2785 91.1951 -5.34338 113.596 6.84499 132.163L20.2205 123.383ZM-0.280668 78.3119L7.63073 79.485L9.97755 63.6581L2.06616 62.485L-0.280668 78.3119ZM0.890663 70.3981C-2.07917 90.4266 2.41978 110.848 13.531 127.774L26.9066 118.994C17.9502 105.35 14.3237 88.8892 16.7176 72.745L0.890663 70.3981ZM13.531 127.774C24.6422 144.7 41.5898 156.95 61.1473 162.19L65.2885 146.735C49.5238 142.511 35.8629 132.637 26.9066 118.994L13.531 127.774ZM55.4905 152.392L53.4205 160.118L68.8753 164.259L70.9453 156.533L55.4905 152.392Z" fill="#FD5A5B" mask="url(#path-2-inside-1_222_100)"/>
<path d="M48.5873 88.7295C50.7633 86.8482 52.4746 85.3068 53.7213 84.1055C54.9906 82.8815 56.0446 81.6122 56.8833 80.2975C57.7219 78.9828 58.1413 77.6682 58.1413 76.3535C58.1413 74.9935 57.8126 73.9282 57.1553 73.1575C56.5206 72.3868 55.5119 72.0015 54.1293 72.0015C52.7919 72.0015 51.7493 72.4322 51.0013 73.2935C50.2759 74.1322 49.8906 75.2655 49.8453 76.6935H46.1053C46.1733 74.1095 46.9439 72.1375 48.4173 70.7775C49.9133 69.3948 51.8059 68.7035 54.0953 68.7035C56.5659 68.7035 58.4926 69.3835 59.8753 70.7435C61.2806 72.1035 61.9833 73.9168 61.9833 76.1835C61.9833 77.8155 61.5639 79.3908 60.7253 80.9095C59.9093 82.4055 58.9233 83.7542 57.7673 84.9555C56.6339 86.1342 55.1833 87.5055 53.4153 89.0695L51.8853 90.4295H62.6633V93.6595H46.1393V90.8375L48.5873 88.7295ZM65.3883 81.2835C65.3883 77.3622 66.0456 74.3022 67.3603 72.1035C68.6976 69.8822 70.987 68.7715 74.2283 68.7715C77.4696 68.7715 79.7476 69.8822 81.0623 72.1035C82.3996 74.3022 83.0683 77.3622 83.0683 81.2835C83.0683 85.2502 82.3996 88.3555 81.0623 90.5995C79.7476 92.8208 77.4696 93.9315 74.2283 93.9315C70.987 93.9315 68.6976 92.8208 67.3603 90.5995C66.0456 88.3555 65.3883 85.2502 65.3883 81.2835ZM79.2603 81.2835C79.2603 79.4475 79.1356 77.8948 78.8863 76.6255C78.6596 75.3562 78.1836 74.3248 77.4583 73.5315C76.733 72.7155 75.6563 72.3075 74.2283 72.3075C72.8003 72.3075 71.7236 72.7155 70.9983 73.5315C70.273 74.3248 69.7856 75.3562 69.5363 76.6255C69.3096 77.8948 69.1963 79.4475 69.1963 81.2835C69.1963 83.1875 69.3096 84.7855 69.5363 86.0775C69.763 87.3695 70.239 88.4122 70.9643 89.2055C71.7123 89.9988 72.8003 90.3955 74.2283 90.3955C75.6563 90.3955 76.733 89.9988 77.4583 89.2055C78.2063 88.4122 78.6936 87.3695 78.9203 86.0775C79.147 84.7855 79.2603 83.1875 79.2603 81.2835ZM94.0296 75.1975C94.0296 73.5428 94.5056 72.2508 95.4576 71.3215C96.4322 70.3695 97.6789 69.8935 99.1976 69.8935C100.716 69.8935 101.952 70.3695 102.904 71.3215C103.878 72.2508 104.366 73.5428 104.366 75.1975C104.366 76.8522 103.878 78.1555 102.904 79.1075C101.952 80.0595 100.716 80.5355 99.1976 80.5355C97.6789 80.5355 96.4322 80.0595 95.4576 79.1075C94.5056 78.1555 94.0296 76.8522 94.0296 75.1975ZM114.77 70.3355L101.204 93.9995H97.3956L110.962 70.3355H114.77ZM99.1976 72.2395C97.7696 72.2395 97.0556 73.2255 97.0556 75.1975C97.0556 77.1922 97.7696 78.1895 99.1976 78.1895C99.8776 78.1895 100.399 77.9515 100.762 77.4755C101.147 76.9768 101.34 76.2175 101.34 75.1975C101.34 73.2255 100.626 72.2395 99.1976 72.2395ZM107.868 89.1035C107.868 87.4488 108.344 86.1568 109.296 85.2275C110.27 84.2755 111.517 83.7995 113.036 83.7995C114.532 83.7995 115.756 84.2755 116.708 85.2275C117.682 86.1568 118.17 87.4488 118.17 89.1035C118.17 90.7582 117.682 92.0615 116.708 93.0135C115.756 93.9655 114.532 94.4415 113.036 94.4415C111.517 94.4415 110.27 93.9655 109.296 93.0135C108.344 92.0615 107.868 90.7582 107.868 89.1035ZM113.002 86.1455C111.574 86.1455 110.86 87.1315 110.86 89.1035C110.86 91.0755 111.574 92.0615 113.002 92.0615C114.43 92.0615 115.144 91.0755 115.144 89.1035C115.144 87.1315 114.43 86.1455 113.002 86.1455Z" fill="#696C70"/>
</svg>
