<svg width="165" height="165" viewBox="0 0 165 165" fill="none" xmlns="http://www.w3.org/2000/svg">
<circle cx="82.4996" cy="82.4995" r="78.5" stroke="#1D1E1F" stroke-width="8"/>
<mask id="path-2-inside-1_222_108" fill="white">
<path d="M103.852 162.189C92.5799 165.209 80.7953 165.804 69.2764 163.933C57.7575 162.063 46.7665 157.77 37.0292 151.338C27.292 144.906 19.03 136.482 12.789 126.621C6.54792 116.761 2.46984 105.688 0.824037 94.1351C-0.821768 82.582 0.00215507 70.8112 3.24139 59.6C6.48063 48.3888 12.0615 37.9924 19.6153 29.0974C27.1692 20.2023 36.5243 13.0111 47.0626 7.99846C57.601 2.98587 69.0828 0.266023 80.75 0.0185547L80.9196 8.01465C70.3835 8.23813 60.0147 10.6943 50.498 15.221C40.9813 19.7476 32.5332 26.2417 25.7116 34.2745C18.89 42.3072 13.8502 51.6957 10.925 61.82C7.99979 71.9444 7.25574 82.5741 8.74199 93.0072C10.2282 103.44 13.911 113.439 19.547 122.344C25.183 131.249 32.644 138.857 41.4373 144.665C50.2306 150.473 60.1561 154.35 70.5583 156.039C80.9605 157.728 91.6027 157.191 101.782 154.464L103.852 162.189Z"/>
</mask>
<path d="M103.852 162.189L105.923 169.916L113.65 167.846L111.579 160.118L103.852 162.189ZM80.75 0.0185547L88.7482 -0.151091L88.5785 -8.14929L80.5803 -7.97965L80.75 0.0185547ZM80.9196 8.01465L81.0892 16.0129L89.0874 15.8432L88.9178 7.845L80.9196 8.01465ZM101.782 154.464L109.509 152.393L107.439 144.666L99.7115 146.736L101.782 154.464ZM101.781 154.461C91.6024 157.189 80.9605 157.726 70.5586 156.037L67.9942 171.83C80.63 173.882 93.5574 173.23 105.923 169.916L101.781 154.461ZM70.5586 156.037C60.1567 154.348 50.2315 150.471 41.4385 144.663L32.62 158.014C43.3015 165.069 55.3583 169.778 67.9942 171.83L70.5586 156.037ZM41.4385 144.663C32.6454 138.855 25.1846 131.247 19.5488 122.343L6.02915 130.9C12.8754 141.717 21.9385 150.958 32.62 158.014L41.4385 144.663ZM19.5488 122.343C13.9129 113.438 10.2303 103.44 8.74408 93.0069L-7.096 95.2634C-5.29061 107.937 -0.817072 120.083 6.02915 130.9L19.5488 122.343ZM8.74408 93.0069C7.25787 82.5741 8.00189 71.9446 10.927 61.8206L-4.44424 57.3794C-7.99758 69.6777 -8.9014 82.59 -7.096 95.2634L8.74408 93.0069ZM10.927 61.8206C13.8521 51.6966 18.8918 42.3083 25.7132 34.2758L13.5175 23.919C5.23112 33.6766 -0.890895 45.0811 -4.44424 57.3794L10.927 61.8206ZM25.7132 34.2758C32.5346 26.2433 40.9825 19.7494 50.4989 15.2229L43.6263 0.774069C32.0661 6.27273 21.8039 14.1614 13.5175 23.919L25.7132 34.2758ZM50.4989 15.2229C60.0154 10.6963 70.3838 8.24023 80.9196 8.01676L80.5803 -7.97965C67.7818 -7.70818 55.1866 -4.7246 43.6263 0.774069L50.4989 15.2229ZM72.7518 0.188201L72.9214 8.1843L88.9178 7.845L88.7482 -0.151091L72.7518 0.188201ZM80.7499 0.0164493C69.0825 0.263924 57.6003 2.98384 47.0617 7.99656L53.9343 22.4453C62.4291 18.4048 71.6845 16.2123 81.0892 16.0129L80.7499 0.0164493ZM47.0617 7.99656C36.5231 13.0093 27.1678 20.2008 19.6137 29.096L31.8094 39.4529C37.8985 32.2827 45.4395 26.4859 53.9343 22.4453L47.0617 7.99656ZM19.6137 29.096C12.0597 37.9913 6.47869 48.388 3.23937 59.5994L18.6106 64.0406C21.2217 55.0035 25.7204 46.6231 31.8094 39.4529L19.6137 29.096ZM3.23937 59.5994C4.87554e-05 70.8109 -0.823894 82.582 0.821952 94.1354L16.662 91.8789C15.3354 82.5661 15.9995 73.0778 18.6106 64.0406L3.23937 59.5994ZM0.821952 94.1354C2.4678 105.689 6.54599 116.762 12.7872 126.623L26.3068 118.066C21.276 110.117 17.9887 101.192 16.662 91.8789L0.821952 94.1354ZM12.7872 126.623C19.0284 136.483 27.2906 144.908 37.0281 151.34L45.8465 137.99C37.9975 132.805 31.3376 126.014 26.3068 118.066L12.7872 126.623ZM37.0281 151.34C46.7656 157.772 57.7569 162.065 69.2761 163.936L71.8405 148.142C62.5553 146.635 53.6956 143.174 45.8465 137.99L37.0281 151.34ZM69.2761 163.936C80.7952 165.806 92.5802 165.211 103.853 162.191L99.7115 146.736C90.6252 149.171 81.1257 149.65 71.8405 148.142L69.2761 163.936ZM94.0546 156.534L96.1246 164.259L111.579 160.118L109.509 152.393L94.0546 156.534Z" fill="#098BF8" mask="url(#path-2-inside-1_222_108)"/>
<path d="M45.8521 88.8315V85.9075L57.2761 69.5195H61.9681V85.4655H65.1301V88.8315H61.9681V93.9995H58.1601V88.8315H45.8521ZM58.3301 73.4635L50.3061 85.4655H58.3301V73.4635ZM69.8038 88.7295C71.9798 86.8482 73.6911 85.3068 74.9378 84.1055C76.2071 82.8815 77.2611 81.6122 78.0998 80.2975C78.9385 78.9828 79.3578 77.6682 79.3578 76.3535C79.3578 74.9935 79.0291 73.9282 78.3718 73.1575C77.7371 72.3868 76.7285 72.0015 75.3458 72.0015C74.0085 72.0015 72.9658 72.4322 72.2178 73.2935C71.4925 74.1322 71.1071 75.2655 71.0618 76.6935H67.3218C67.3898 74.1095 68.1605 72.1375 69.6338 70.7775C71.1298 69.3948 73.0225 68.7035 75.3118 68.7035C77.7825 68.7035 79.7091 69.3835 81.0918 70.7435C82.4971 72.1035 83.1998 73.9168 83.1998 76.1835C83.1998 77.8155 82.7805 79.3908 81.9418 80.9095C81.1258 82.4055 80.1398 83.7542 78.9838 84.9555C77.8505 86.1342 76.3998 87.5055 74.6318 89.0695L73.1018 90.4295H83.8798V93.6595H67.3558V90.8375L69.8038 88.7295ZM94.1449 75.1975C94.1449 73.5428 94.6209 72.2508 95.5729 71.3215C96.5475 70.3695 97.7942 69.8935 99.3129 69.8935C100.832 69.8935 102.067 70.3695 103.019 71.3215C103.994 72.2508 104.481 73.5428 104.481 75.1975C104.481 76.8522 103.994 78.1555 103.019 79.1075C102.067 80.0595 100.832 80.5355 99.3129 80.5355C97.7942 80.5355 96.5475 80.0595 95.5729 79.1075C94.6209 78.1555 94.1449 76.8522 94.1449 75.1975ZM114.885 70.3355L101.319 93.9995H97.5109L111.077 70.3355H114.885ZM99.3129 72.2395C97.8849 72.2395 97.1709 73.2255 97.1709 75.1975C97.1709 77.1922 97.8849 78.1895 99.3129 78.1895C99.9929 78.1895 100.514 77.9515 100.877 77.4755C101.262 76.9768 101.455 76.2175 101.455 75.1975C101.455 73.2255 100.741 72.2395 99.3129 72.2395ZM107.983 89.1035C107.983 87.4488 108.459 86.1568 109.411 85.2275C110.386 84.2755 111.632 83.7995 113.151 83.7995C114.647 83.7995 115.871 84.2755 116.823 85.2275C117.798 86.1568 118.285 87.4488 118.285 89.1035C118.285 90.7582 117.798 92.0615 116.823 93.0135C115.871 93.9655 114.647 94.4415 113.151 94.4415C111.632 94.4415 110.386 93.9655 109.411 93.0135C108.459 92.0615 107.983 90.7582 107.983 89.1035ZM113.117 86.1455C111.689 86.1455 110.975 87.1315 110.975 89.1035C110.975 91.0755 111.689 92.0615 113.117 92.0615C114.545 92.0615 115.259 91.0755 115.259 89.1035C115.259 87.1315 114.545 86.1455 113.117 86.1455Z" fill="#696C70"/>
</svg>
