<svg width="165" height="165" viewBox="0 0 165 165" fill="none" xmlns="http://www.w3.org/2000/svg">
<circle cx="82.5" cy="82.4995" r="78.5" stroke="#1D1E1F" stroke-width="8"/>
<mask id="path-2-inside-1_222_124" fill="white">
<path d="M165 82.4995C165 101.353 158.542 119.638 146.702 134.31C134.862 148.982 118.353 159.156 99.9252 163.138C81.4969 167.12 62.2605 164.671 45.4187 156.196C28.5768 147.722 15.1455 133.735 7.36088 116.564C-0.423757 99.3922 -2.09208 80.0724 2.63366 61.8206C7.3594 43.5688 18.1941 27.4863 33.3339 16.2504C48.4738 5.01454 67.0054 -0.696761 85.8435 0.0673298C104.682 0.83142 122.69 8.0248 136.87 20.4499L131.599 26.4653C118.794 15.2447 102.531 8.74867 85.5194 8.05865C68.5075 7.36864 51.7724 12.5263 38.1003 22.6729C24.4282 32.8195 14.6438 47.3429 10.3762 63.8253C6.10863 80.3077 7.61522 97.7545 14.6452 113.261C21.6751 128.768 33.8043 141.399 49.0135 149.052C64.2226 156.705 81.5941 158.917 98.2359 155.321C114.878 151.725 129.786 142.537 140.478 129.287C151.17 116.038 157.002 99.5254 157.002 82.4995H165Z"/>
</mask>
<path d="M165 82.4995H173V74.4995H165V82.4995ZM136.87 20.4499L142.887 25.7222L148.159 19.7052L142.142 14.433L136.87 20.4499ZM131.599 26.4653L126.327 32.4822L132.344 37.7544L137.616 31.7375L131.599 26.4653ZM157.002 82.4995V74.4995H149.002V82.4995H157.002ZM157 82.4995C157 99.525 151.169 116.037 140.476 129.286L152.928 139.334C165.916 123.239 173 103.181 173 82.4995H157ZM140.476 129.286C129.784 142.535 114.877 151.723 98.2355 155.319L101.615 170.958C121.83 166.59 139.939 155.429 152.928 139.334L140.476 129.286ZM98.2355 155.319C81.5941 158.915 64.2232 156.702 49.0144 149.05L41.8229 163.343C60.2979 172.639 81.3996 175.326 101.615 170.958L98.2355 155.319ZM49.0144 149.05C33.8057 141.398 21.6769 128.767 14.6471 113.26L0.0746664 119.867C8.61418 138.703 23.3479 154.047 41.8229 163.343L49.0144 149.05ZM14.6471 113.26C7.61733 97.7541 6.11079 80.3078 10.3783 63.8258L-5.11095 59.8154C-10.2949 79.837 -8.46485 101.03 0.0746664 119.867L14.6471 113.26ZM10.3783 63.8258C14.6458 47.3439 24.4298 32.8209 38.1015 22.6746L28.5663 9.82626C11.9583 22.1517 0.0730388 39.7937 -5.11095 59.8154L10.3783 63.8258ZM38.1015 22.6746C51.7733 12.5282 68.5079 7.37076 85.5193 8.06076L86.1677 -7.9261C65.5028 -8.76428 45.1743 -2.49916 28.5663 9.82626L38.1015 22.6746ZM85.5193 8.06076C102.531 8.75075 118.793 15.2466 131.598 26.4669L142.142 14.433C126.587 0.803006 106.833 -7.08791 86.1677 -7.9261L85.5193 8.06076ZM130.853 15.1777L125.582 21.193L137.616 31.7375L142.887 25.7222L130.853 15.1777ZM136.871 20.4483C122.691 8.0229 104.682 0.829335 85.8436 0.0652255L85.1952 16.0521C100.38 16.668 114.896 22.4665 126.327 32.4822L136.871 20.4483ZM85.8436 0.0652255C67.005 -0.698884 48.4729 5.01256 33.3327 16.2487L42.8679 29.097C55.0719 20.04 70.01 15.4362 85.1952 16.0521L85.8436 0.0652255ZM33.3327 16.2487C18.1924 27.4849 7.35748 43.5678 2.63162 61.8201L18.1208 65.8305C21.9302 51.118 30.6639 38.1541 42.8679 29.097L33.3327 16.2487ZM2.63162 61.8201C-2.09424 80.0723 -0.425873 99.3926 7.35897 116.565L21.9314 109.958C15.6563 96.1165 14.3115 80.543 18.1208 65.8305L2.63162 61.8201ZM7.35897 116.565C15.1438 133.736 28.5754 147.724 45.4177 156.198L52.6093 141.906C39.0333 135.075 28.2065 123.8 21.9314 109.958L7.35897 116.565ZM45.4177 156.198C62.26 164.673 81.4968 167.123 99.9256 163.14L96.5462 147.501C81.6914 150.711 66.1853 148.736 52.6093 141.906L45.4177 156.198ZM99.9256 163.14C118.354 159.158 134.863 148.984 146.704 134.311L134.252 124.263C124.708 136.09 111.401 144.291 96.5462 147.501L99.9256 163.14ZM146.704 134.311C158.544 119.639 165.002 101.354 165.002 82.4995H149.002C149.002 97.6972 143.797 112.436 134.252 124.263L146.704 134.311ZM157.002 90.4995H165V74.4995H157.002V90.4995Z" fill="#2AC98F" mask="url(#path-2-inside-1_222_124)"/>
<path d="M49.6307 81.0455C47.2733 79.8668 46.0947 78.0082 46.0947 75.4695C46.0947 74.2455 46.4007 73.1235 47.0127 72.1035C47.6247 71.0835 48.5427 70.2788 49.7667 69.6895C50.9907 69.0775 52.4867 68.7715 54.2547 68.7715C56 68.7715 57.4847 69.0775 58.7087 69.6895C59.9553 70.2788 60.8847 71.0835 61.4967 72.1035C62.1087 73.1235 62.4147 74.2455 62.4147 75.4695C62.4147 76.7388 62.086 77.8608 61.4287 78.8355C60.794 79.7875 59.944 80.5242 58.8787 81.0455C60.1707 81.5215 61.1907 82.3035 61.9387 83.3915C62.6867 84.4568 63.0607 85.7148 63.0607 87.1655C63.0607 88.6388 62.6867 89.9422 61.9387 91.0755C61.1907 92.2088 60.148 93.0815 58.8107 93.6935C57.4733 94.3055 55.9547 94.6115 54.2547 94.6115C52.5547 94.6115 51.036 94.3055 49.6987 93.6935C48.384 93.0815 47.3527 92.2088 46.6047 91.0755C45.8567 89.9422 45.4827 88.6388 45.4827 87.1655C45.4827 85.6922 45.8567 84.4228 46.6047 83.3575C47.3527 82.2922 48.3613 81.5215 49.6307 81.0455ZM58.7087 75.9455C58.7087 74.6762 58.312 73.7015 57.5187 73.0215C56.7253 72.3415 55.6373 72.0015 54.2547 72.0015C52.8947 72.0015 51.818 72.3415 51.0247 73.0215C50.2313 73.7015 49.8347 74.6875 49.8347 75.9795C49.8347 77.1128 50.2427 78.0422 51.0587 78.7675C51.8973 79.4702 52.9627 79.8215 54.2547 79.8215C55.5467 79.8215 56.612 79.4588 57.4507 78.7335C58.2893 78.0082 58.7087 77.0788 58.7087 75.9455ZM54.2547 82.7455C52.7587 82.7455 51.5347 83.1195 50.5827 83.8675C49.6533 84.5928 49.1887 85.6468 49.1887 87.0295C49.1887 88.3215 49.642 89.3755 50.5487 90.1915C51.4553 90.9848 52.6907 91.3815 54.2547 91.3815C55.796 91.3815 57.0087 90.9735 57.8927 90.1575C58.7993 89.3415 59.2527 88.2988 59.2527 87.0295C59.2527 85.6695 58.788 84.6155 57.8587 83.8675C56.952 83.1195 55.7507 82.7455 54.2547 82.7455ZM82.4303 72.5455H71.0403V79.3115C71.5163 78.6768 72.219 78.1442 73.1483 77.7135C74.1003 77.2828 75.109 77.0675 76.1743 77.0675C78.0783 77.0675 79.6196 77.4755 80.7983 78.2915C81.9996 79.1075 82.8496 80.1388 83.3483 81.3855C83.8696 82.6322 84.1303 83.9468 84.1303 85.3295C84.1303 87.0068 83.8016 88.5028 83.1443 89.8175C82.5096 91.1095 81.5463 92.1295 80.2543 92.8775C78.985 93.6255 77.421 93.9995 75.5623 93.9995C73.0916 93.9995 71.1083 93.3875 69.6123 92.1635C68.1163 90.9395 67.221 89.3188 66.9263 87.3015H70.7003C70.9496 88.3668 71.505 89.2168 72.3663 89.8515C73.2276 90.4635 74.3043 90.7695 75.5963 90.7695C77.2056 90.7695 78.407 90.2822 79.2003 89.3075C80.0163 88.3328 80.4243 87.0408 80.4243 85.4315C80.4243 83.7995 80.0163 82.5528 79.2003 81.6915C78.3843 80.8075 77.183 80.3655 75.5963 80.3655C74.4856 80.3655 73.545 80.6488 72.7743 81.2155C72.0263 81.7595 71.4823 82.5075 71.1423 83.4595H67.4703V69.1455H82.4303V72.5455ZM95.0252 75.1975C95.0252 73.5428 95.5012 72.2508 96.4532 71.3215C97.4279 70.3695 98.6745 69.8935 100.193 69.8935C101.712 69.8935 102.947 70.3695 103.899 71.3215C104.874 72.2508 105.361 73.5428 105.361 75.1975C105.361 76.8522 104.874 78.1555 103.899 79.1075C102.947 80.0595 101.712 80.5355 100.193 80.5355C98.6745 80.5355 97.4279 80.0595 96.4532 79.1075C95.5012 78.1555 95.0252 76.8522 95.0252 75.1975ZM115.765 70.3355L102.199 93.9995H98.3912L111.957 70.3355H115.765ZM100.193 72.2395C98.7652 72.2395 98.0512 73.2255 98.0512 75.1975C98.0512 77.1922 98.7652 78.1895 100.193 78.1895C100.873 78.1895 101.395 77.9515 101.757 77.4755C102.143 76.9768 102.335 76.2175 102.335 75.1975C102.335 73.2255 101.621 72.2395 100.193 72.2395ZM108.863 89.1035C108.863 87.4488 109.339 86.1568 110.291 85.2275C111.266 84.2755 112.513 83.7995 114.031 83.7995C115.527 83.7995 116.751 84.2755 117.703 85.2275C118.678 86.1568 119.165 87.4488 119.165 89.1035C119.165 90.7582 118.678 92.0615 117.703 93.0135C116.751 93.9655 115.527 94.4415 114.031 94.4415C112.513 94.4415 111.266 93.9655 110.291 93.0135C109.339 92.0615 108.863 90.7582 108.863 89.1035ZM113.997 86.1455C112.569 86.1455 111.855 87.1315 111.855 89.1035C111.855 91.0755 112.569 92.0615 113.997 92.0615C115.425 92.0615 116.139 91.0755 116.139 89.1035C116.139 87.1315 115.425 86.1455 113.997 86.1455Z" fill="#696C70"/>
</svg>
