<svg width="12" height="9" viewBox="0 0 12 9" fill="none" xmlns="http://www.w3.org/2000/svg">
<path d="M11.6129 0H0.387097C0.173226 0 0 0.175109 0 0.391304V8.6087C0 8.82489 0.173226 9 0.387097 9H11.6129C11.8268 9 12 8.82489 12 8.6087V0.391304C12 0.175109 11.8268 0 11.6129 0ZM10.9475 1.33572L6.10877 4.6618C6.07606 4.6843 6.03794 4.69565 6 4.69565C5.96206 4.69565 5.92394 4.6843 5.89103 4.6618L1.05232 1.33572C0.964064 1.27487 0.941032 1.15317 1.00103 1.06376C1.06123 0.974739 1.18142 0.951261 1.27006 1.01191L6 4.26346L10.7297 1.01211C10.818 0.951261 10.9386 0.974935 10.9988 1.06396C11.059 1.15337 11.0359 1.27507 10.9475 1.33572Z" fill="white"/>
</svg>
