<svg width="46" height="46" viewBox="0 0 46 46" fill="none" xmlns="http://www.w3.org/2000/svg">
<g clip-path="url(#clip0_222_328)">
<path d="M36.2676 26.4345C37.2386 26.4345 38.0255 27.2214 38.0255 28.1923V30.3017C38.0255 31.2726 37.2386 32.0595 36.2676 32.0595H32.2247C31.2538 32.0595 30.4669 31.2726 30.4669 30.3017V28.1923C30.4669 27.2214 31.2538 26.4345 32.2247 26.4345H36.2676ZM41.5411 23.2704V17.997H3.57233L3.57233 32.0488C3.57233 33.9872 5.14955 35.5645 7.08795 35.5645H38.0255C39.9639 35.5645 41.5411 33.9872 41.5411 32.0488C41.5411 31.0779 42.328 30.291 43.2989 30.291C44.2698 30.291 45.0567 31.0779 45.0567 32.0488C45.0567 35.926 41.9026 39.0801 38.0255 39.0801H7.08795C3.21081 39.0801 0.0567017 35.926 0.0567017 32.0488L0.0567017 13.0645C0.0567017 9.18731 3.21081 6.0332 7.08795 6.0332L38.0255 6.0332C41.9026 6.0332 45.0567 9.18731 45.0567 13.0645V23.2704C45.0567 24.2413 44.2698 25.0282 43.2989 25.0282C42.328 25.0282 41.5411 24.2413 41.5411 23.2704ZM41.5411 14.4813V13.0645C41.5411 11.1261 39.9639 9.54883 38.0255 9.54883H7.08795C5.14955 9.54883 3.57233 11.1261 3.57233 13.0645L3.57233 14.4813L41.5411 14.4813ZM8.84576 21.5126C7.87485 21.5126 7.08795 22.2995 7.08795 23.2704C7.08795 24.2413 7.87485 25.0282 8.84576 25.0282H23.3477C24.3186 25.0282 25.1055 24.2413 25.1055 23.2704C25.1055 22.2995 24.3186 21.5126 23.3477 21.5126H8.84576Z" fill="#35CF92"/>
</g>
<defs>
<clipPath id="clip0_222_328">
<rect width="45" height="45" fill="white" transform="translate(0.0566406 0.0566406)"/>
</clipPath>
</defs>
</svg>
