<svg width="45" height="31" viewBox="0 0 45 31" fill="none" xmlns="http://www.w3.org/2000/svg">
<path d="M30.3223 0.822266C27.0461 0.822266 24.0174 1.90147 21.5724 3.72266H8.78906C7.81822 3.72266 7.03125 4.50963 7.03125 5.48047C7.03125 6.45131 7.81822 7.23828 8.78906 7.23828H18.197C16.9 9.13566 16.0368 11.3515 15.7502 13.7422H5.27344C4.3026 13.7422 3.51562 14.5292 3.51562 15.5C3.51562 16.4708 4.3026 17.2578 5.27344 17.2578H15.7502C16.0368 19.6485 16.9 21.8643 18.197 23.7617H1.75781C0.786973 23.7617 0 24.5487 0 25.5195C0 26.4904 0.786973 27.2773 1.75781 27.2773H21.3574C21.4247 27.2773 21.4908 27.2728 21.5561 27.2654C24.0039 29.0939 27.0388 30.1777 30.3223 30.1777C32.4461 30.1777 34.4956 29.7334 36.4139 28.8574C37.297 28.4541 37.6859 27.4113 37.2826 26.5283C36.8792 25.6452 35.8363 25.2562 34.9534 25.6595C33.4967 26.3248 31.9386 26.6621 30.3223 26.6621C24.1675 26.6621 19.1602 21.6548 19.1602 15.5C19.1602 9.3452 24.1675 4.33789 30.3223 4.33789C36.4771 4.33789 41.4844 9.3452 41.4844 15.5C41.4844 17.1025 41.1526 18.6486 40.4981 20.0952C40.0978 20.9797 40.4905 22.0211 41.375 22.4213C42.2596 22.8216 43.301 22.4289 43.7012 21.5443C44.563 19.6393 45 17.6057 45 15.5C45 7.40668 38.4156 0.822266 30.3223 0.822266Z" fill="#35CF92"/>
</svg>
