<svg width="45" height="45" viewBox="0 0 45 45" fill="none" xmlns="http://www.w3.org/2000/svg">
<g clip-path="url(#clip0_222_284)">
<path d="M43.5923 22.2C42.0877 20.96 39.7096 20.8536 38.1488 22.5287L34.2739 26.6884C33.7729 25.0783 32.2692 23.9059 30.4966 23.9059H23.5818C23.0571 23.9059 22.8814 23.7055 21.97 23.0034C18.495 19.9739 13.2755 19.9836 9.81106 23.0324L7.26943 25.2699C6.12694 24.6652 4.79285 24.6503 3.64412 25.2242L0.728965 26.6813C0.077696 27.0074 -0.185888 27.7992 0.139219 28.4505L8.04894 44.2698C8.37501 44.9211 9.16682 45.1847 9.81809 44.8596L12.7332 43.4016C14.1702 42.6836 14.9699 41.2176 14.918 39.7253H30.4966C33.3853 39.7253 36.1458 38.3456 37.8789 36.0342L44.2076 27.5955C45.4353 25.9598 45.2411 23.5614 43.5923 22.2ZM11.5537 41.0435L9.818 41.9118L3.0869 28.4505L4.82353 27.5822C5.4748 27.257 6.26572 27.5198 6.5918 28.1719L12.1435 39.2753C12.4687 39.9265 12.205 40.7175 11.5537 41.0435ZM42.0983 26.0134L35.7697 34.4522C34.5314 36.1035 32.5601 37.0887 30.4966 37.0887H13.9979L9.05783 27.2078L11.5529 25.0116C14.0356 22.8276 17.7796 22.8276 20.2623 25.0116C21.7247 26.2991 22.6343 26.5425 23.5818 26.5425H30.4966C31.2234 26.5425 31.8148 27.134 31.8148 27.8608C31.8148 28.5876 31.2233 29.1791 30.4966 29.1791H23.7637C23.036 29.1791 22.4454 29.7697 22.4454 30.4974C22.4454 31.225 23.036 31.8156 23.7637 31.8156H31.3799C32.474 31.8156 33.5287 31.3568 34.2739 30.5562L40.0779 24.326C40.6087 23.7565 41.4225 23.804 41.9217 24.2408C42.4437 24.6977 42.5 25.4791 42.0983 26.0134Z" fill="#35CF92"/>
<path d="M27.7193 8.99718C28.6218 8.05068 29.1782 6.77108 29.1782 5.3622C29.1782 2.46022 26.8334 0.0012207 23.9051 0.0012207C20.9987 0.0012207 18.5441 2.45583 18.5441 5.3622C18.5441 6.72793 19.0794 8.0172 20.0514 9.00773C17.6407 10.3594 15.9076 12.9538 15.9076 15.9963V17.3146C15.9076 18.0423 16.4982 18.6329 17.2259 18.6329H30.4966C31.2242 18.6329 31.8148 18.0423 31.8148 17.3146V15.9963C31.8147 13.0135 30.1741 10.3787 27.7193 8.99718ZM23.9051 2.63785C25.3341 2.63785 26.5416 3.88581 26.5416 5.36229C26.5416 6.81591 25.3587 7.99883 23.9051 7.99883C22.4286 7.99883 21.1807 6.7913 21.1807 5.36229C21.1807 3.9113 22.4541 2.63785 23.9051 2.63785ZM18.5441 15.9963C18.5441 13.09 20.9987 10.6354 23.9051 10.6354C26.8124 10.6354 29.1782 13.0399 29.1782 15.9963H18.5441Z" fill="#35CF92"/>
</g>
<defs>
<clipPath id="clip0_222_284">
<rect width="45" height="45" fill="white"/>
</clipPath>
</defs>
</svg>
