<svg width="45" height="45" viewBox="0 0 45 45" fill="none" xmlns="http://www.w3.org/2000/svg">
<g clip-path="url(#clip0_222_309)">
<path d="M45 26.6206C45 31.5569 43.429 36.2425 40.4568 40.1719C39.8704 40.9474 38.7677 41.0978 37.9945 40.5131C37.2203 39.9274 37.0675 38.825 37.6529 38.0508C40.1595 34.7374 41.4844 30.7847 41.4844 26.6206C41.4844 16.1279 32.9868 7.64648 22.5 7.64648C12.006 7.64648 3.51562 16.1345 3.51562 26.6206C3.51562 30.7847 4.84051 34.7374 7.34676 38.0508C7.93247 38.825 7.77969 39.9274 7.0055 40.5131C6.23096 41.0988 5.1289 40.946 4.54285 40.1719C1.57104 36.2425 0 31.5569 0 26.6206C0 14.184 10.0703 4.13086 22.5 4.13086C34.9365 4.13086 45 14.1909 45 26.6206ZM33.6377 16.0342C34.324 16.7205 34.324 17.8336 33.6377 18.5199L27.908 24.2496C28.3797 25.1192 28.6482 26.1148 28.6482 27.1716C28.6482 30.5619 25.89 33.3198 22.5 33.3198C19.1097 33.3198 16.3518 30.5619 16.3518 27.1716C16.3518 23.7816 19.1097 21.0234 22.5 21.0234C23.5571 21.0234 24.5524 21.2918 25.422 21.7636L31.1517 16.0339C31.8384 15.3476 32.9511 15.3476 33.6377 16.0342ZM25.1326 27.1719C25.1326 25.7204 23.9516 24.5393 22.5 24.5393C21.0484 24.5393 19.8674 25.7204 19.8674 27.1719C19.8674 28.6235 21.0484 29.8045 22.5 29.8045C23.9516 29.8045 25.1326 28.6235 25.1326 27.1719Z" fill="#35CF92"/>
</g>
<defs>
<clipPath id="clip0_222_309">
<rect width="45" height="45" fill="white"/>
</clipPath>
</defs>
</svg>
