<svg width="45" height="45" viewBox="0 0 45 45" fill="none" xmlns="http://www.w3.org/2000/svg">
<g clip-path="url(#clip0_222_316)">
<path d="M20.9133 28.7068C20.9892 29.4401 21.608 29.9859 22.3295 29.9859C22.3785 29.9859 22.4279 29.9835 22.4777 29.9783C23.2608 29.8974 23.83 29.197 23.7491 28.4139L23.0918 22.0529C23.0108 21.2696 22.3107 20.7008 21.5274 20.7816C20.7444 20.8625 20.1751 21.5629 20.2561 22.346L20.9133 28.7068Z" fill="white"/>
<path d="M29.8345 29.9783C29.8843 29.9835 29.9337 29.9859 29.9828 29.9859C30.7041 29.9859 31.3231 29.4401 31.3989 28.7068L32.0562 22.3458C32.1371 21.5625 31.5679 20.8622 30.7848 20.7814C30.0016 20.7017 29.3012 21.2696 29.2204 22.0527L28.5632 28.4137C28.482 29.197 29.0513 29.8974 29.8345 29.9783Z" fill="white"/>
<path d="M18.7971 36.1743C16.3641 36.1743 14.3848 38.1536 14.3848 40.5866C14.3848 43.0202 16.3641 45.0001 18.7971 45.0001C21.2301 45.0001 23.2096 43.0202 23.2096 40.5866C23.2096 38.1536 21.2301 36.1743 18.7971 36.1743ZM18.7971 42.1489C17.9361 42.1489 17.2357 41.448 17.2357 40.5864C17.2357 39.7254 17.9361 39.0251 18.7971 39.0251C19.6581 39.0251 20.3586 39.7254 20.3586 40.5864C20.3586 41.448 19.6581 42.1489 18.7971 42.1489Z" fill="white"/>
<path d="M33.5154 36.1743C31.0824 36.1743 29.1029 38.1536 29.1029 40.5866C29.1029 43.0202 31.0824 45.0001 33.5154 45.0001C35.9486 45.0001 37.9283 43.0202 37.9283 40.5866C37.9283 38.1536 35.9486 36.1743 33.5154 36.1743ZM33.5154 42.1489C32.6544 42.1489 31.9538 41.448 31.9538 40.5864C31.9538 39.7254 32.6544 39.0251 33.5154 39.0251C34.3766 39.0251 35.0773 39.7254 35.0773 40.5864C35.0773 41.448 34.3766 42.1489 33.5154 42.1489Z" fill="white"/>
<path d="M42.042 16.0265C41.7721 15.6773 41.3556 15.4728 40.9143 15.4728H12.5009L11.3079 10.8845C11.1444 10.2563 10.5773 9.81787 9.92821 9.81787H4.08569C3.29845 9.81787 2.66022 10.4561 2.66022 11.2433C2.66022 12.0306 3.29845 12.6688 4.08569 12.6688H8.82604L10.0084 17.2155C10.0149 17.244 10.0223 17.2723 10.0305 17.3003L14.4304 34.22C14.5939 34.8482 15.161 35.2867 15.8101 35.2867H36.503C37.152 35.2867 37.7192 34.8482 37.8826 34.22L42.2942 17.2569C42.405 16.83 42.3119 16.3754 42.042 16.0265ZM35.4006 32.4359H16.9121L13.2421 18.3237H39.0705L35.4006 32.4359Z" fill="white"/>
<path d="M20.261 7.46352L28.6095 7.4639L26.4298 9.64373C25.8732 10.2004 25.8732 11.103 26.4298 11.6595C26.7081 11.9378 27.073 12.0771 27.4377 12.0771C27.8025 12.0771 28.1674 11.938 28.4457 11.6595L33.0571 7.04805C33.6138 6.49135 33.6138 5.58875 33.0571 5.03224L28.4424 0.41752C27.8857 -0.139173 26.9831 -0.139173 26.4264 0.41752C25.8697 0.974214 25.8697 1.87682 26.4264 2.43352L28.6061 4.61315L20.261 4.61277C19.4737 4.61277 18.8355 5.251 18.8355 6.03824C18.8357 6.82529 19.4737 7.46352 20.261 7.46352Z" fill="white"/>
</g>
<defs>
<clipPath id="clip0_222_316">
<rect width="45" height="45" fill="white"/>
</clipPath>
</defs>
</svg>
