<svg width="126" height="36" viewBox="0 0 126 36" fill="none" xmlns="http://www.w3.org/2000/svg">
<path d="M63.8 16.3L59.6 23.8H55.4L51.2 16.3V28H45.8V7H51.5L57.5 18.1L63.5 7H69.2V28H63.8V16.3ZM88.1117 23.5C88.1117 25 87.6817 26.18 86.8217 27.04C85.9817 27.88 84.8117 28.3 83.3117 28.3H76.4117C74.9117 28.3 73.7317 27.88 72.8717 27.04C72.0317 26.18 71.6117 25 71.6117 23.5V16.6C71.6117 15.1 72.0317 13.93 72.8717 13.09C73.7317 12.23 74.9117 11.8 76.4117 11.8H83.3117C84.8117 11.8 85.9817 12.23 86.8217 13.09C87.6817 13.93 88.1117 15.1 88.1117 16.6V23.5ZM82.8617 17.05C82.8617 16.25 82.4617 15.85 81.6617 15.85H78.0617C77.2617 15.85 76.8617 16.25 76.8617 17.05V23.05C76.8617 23.85 77.2617 24.25 78.0617 24.25H81.6617C82.4617 24.25 82.8617 23.85 82.8617 23.05V17.05ZM106.408 23.5C106.408 25 105.978 26.18 105.118 27.04C104.278 27.88 103.108 28.3 101.608 28.3H94.7082C93.2082 28.3 92.0282 27.88 91.1682 27.04C90.3282 26.18 89.9082 25 89.9082 23.5V16.6C89.9082 15.1 90.3282 13.93 91.1682 13.09C92.0282 12.23 93.2082 11.8 94.7082 11.8H101.608C103.108 11.8 104.278 12.23 105.118 13.09C105.978 13.93 106.408 15.1 106.408 16.6V23.5ZM101.158 17.05C101.158 16.25 100.758 15.85 99.9582 15.85H96.3582C95.5582 15.85 95.1582 16.25 95.1582 17.05V23.05C95.1582 23.85 95.5582 24.25 96.3582 24.25H99.9582C100.758 24.25 101.158 23.85 101.158 23.05V17.05ZM117.355 16.15C116.295 16.15 115.095 16.35 113.755 16.75V28H108.505V12.1H113.155L113.455 13.6C114.395 12.98 115.355 12.53 116.335 12.25C117.335 11.95 118.175 11.8 118.855 11.8H120.205C121.565 11.8 122.655 12.21 123.475 13.03C124.295 13.85 124.705 14.94 124.705 16.3V28H119.455V17.2C119.455 16.9 119.355 16.65 119.155 16.45C118.955 16.25 118.705 16.15 118.405 16.15H117.355Z" fill="white"/>
<g clip-path="url(#clip0_222_272)">
<path d="M11.5389 18C11.5389 9.83032 16.985 2.93571 24.4421 0.736892C22.8261 0.260436 21.1161 0 19.3453 0C9.40423 0 1.34534 8.05896 1.34534 18C1.34534 27.9417 9.4043 36.0001 19.3454 36.0001C21.1156 36.0001 22.8261 35.7402 24.4422 35.2638C16.9845 33.0654 11.5389 26.1703 11.5389 18Z" fill="#37CFA9"/>
<path d="M24.973 10.9989C29.3673 10.9989 33.0764 13.9284 34.2587 17.9402C34.5147 17.0711 34.6547 16.1509 34.6547 15.1985C34.6547 9.85199 30.3201 5.51791 24.9729 5.51733C19.6258 5.51733 15.2906 9.85142 15.2906 15.198C15.2906 16.1503 15.4313 17.0705 15.6878 17.9396C16.8708 13.9284 20.5793 10.9995 24.973 10.9989Z" fill="#098BF8"/>
<path d="M28.3626 21.1222C28.3626 24.3903 26.1829 27.1488 23.1994 28.028C23.8457 28.2186 24.5297 28.3227 25.239 28.3227C29.2148 28.3227 32.4396 25.099 32.4396 21.1216C32.4396 17.1442 29.2164 13.9199 25.239 13.9199C24.5314 13.9199 23.8457 14.0234 23.1994 14.2147C26.1829 15.0944 28.3626 17.853 28.3626 21.1222Z" fill="#FF8C65"/>
</g>
<defs>
<clipPath id="clip0_222_272">
<rect width="36" height="36" fill="white"/>
</clipPath>
</defs>
</svg>
